# xmcd CD database file
#
# Track frame offsets:
#	300
#	18413
#	36018
#	55772
#	84468
#	99825
#	117935
#	139332
#	174445
#	183452
#	203796
#	221198
#	238245
#	248089
#	267591
#	293766
#	308916
#
# Disc length: 4270 seconds
#
# Revision: 0
# Processed by: cddbd v1.5.1PL0 Copyright (c) Steve Scherf et al.
# Submitted via: CDex 1.51
#
DISCID=f810aa11
DTITLE=The Beijing Brothers - YangQin and Erhu 1
DYEAR=2004
DGENRE=New Age
TTITLE0=Sea Of Life
TTITLE1=Love Story Of Plum Blossom
TTITLE2=A New Moon Lighting The Whole Country
TTITLE3=Missing In Spring
TTITLE4=God Fathers Theme
TTITLE5=The Moon In My Heart
TTITLE6=The Little Boat
TTITLE7=Flower Goddess
TTITLE8=The Hungarian Dance
TTITLE9=A Ditty Of Yimeng Mountains
TTITLE10=Bumper Harvest
TTITLE11=Butterfly Lovers
TTITLE12=When A Child Is Born
TTITLE13=Love Song Of The Prairie
TTITLE14=Autumn Moon On A Placid Lake
TTITLE15=Shepherdess
TTITLE16=William Tell's Overture
EXTD=YEAR: 2004
EXTT0=
EXTT1=
EXTT2=
EXTT3=
EXTT4=
EXTT5=
EXTT6=
EXTT7=
EXTT8=
EXTT9=
EXTT10=
EXTT11=
EXTT12=
EXTT13=
EXTT14=
EXTT15=
EXTT16=
PLAYORDER=
